<svg width="32" height="32" viewBox="0 0 32 32" fill="none" xmlns="http://www.w3.org/2000/svg">
  <defs>
    <linearGradient id="bg" x1="0" y1="0" x2="1" y2="1">
      <stop offset="0%" stop-color="#1a1a2e"/>
      <stop offset="100%" stop-color="#16213e"/>
    </linearGradient>
    <linearGradient id="lobster" x1="0" y1="0" x2="1" y2="1">
      <stop offset="0%" stop-color="#F59E0B"/>
      <stop offset="50%" stop-color="#F97316"/>
      <stop offset="100%" stop-color="#EF4444"/>
    </linearGradient>
  </defs>
  <!-- bg circle -->
  <circle cx="16" cy="16" r="15" fill="url(#bg)"/>
  <!-- body -->
  <ellipse cx="16" cy="17.5" rx="5.5" ry="6.5" fill="url(#lobster)"/>
  <!-- tail -->
  <path d="M11.5 22.5 L16 28.5 L20.5 22.5" fill="url(#lobster)"/>
  <path d="M13 22.5 L16 26 L19 22.5" fill="#1a1a2e" opacity="0.3"/>
  <!-- head -->
  <ellipse cx="16" cy="12.5" rx="4" ry="4.5" fill="url(#lobster)"/>
  <!-- eyes -->
  <circle cx="14" cy="11.5" r="1.2" fill="white"/>
  <circle cx="18" cy="11.5" r="1.2" fill="white"/>
  <circle cx="14.3" cy="11.5" r="0.6" fill="#1a1a2e"/>
  <circle cx="18.3" cy="11.5" r="0.6" fill="#1a1a2e"/>
  <!-- antennae -->
  <path d="M14.5 8.5 Q12 4 9 2" stroke="#F59E0B" stroke-width="0.7" fill="none" stroke-linecap="round"/>
  <path d="M17.5 8.5 Q20 4 23 2" stroke="#F59E0B" stroke-width="0.7" fill="none" stroke-linecap="round"/>
  <!-- claws -->
  <path d="M10.5 13.5 Q7 11.5 5.5 13" stroke="#EF4444" stroke-width="1" fill="none" stroke-linecap="round"/>
  <path d="M5 12.5 Q4 11.5 5.5 11 Q6 11.5 5.5 12.5" fill="#EF4444"/>
  <path d="M21.5 13.5 Q25 11.5 26.5 13" stroke="#EF4444" stroke-width="1" fill="none" stroke-linecap="round"/>
  <path d="M27 12.5 Q28 11.5 26.5 11 Q26 11.5 26.5 12.5" fill="#EF4444"/>
</svg>
